<?xml version="1.0" encoding="iso-8859-1"?>
<svg fill="#FFFFFF" height="800px" width="800px" version="1.1" id="Layer_1" xmlns="http://www.w3.org/2000/svg" xmlns:xlink="http://www.w3.org/1999/xlink" 
	 viewBox="0 0 479.6 479.6" xml:space="preserve">
<g transform="translate(0 -540.36)">
	<g>
		<g>
			<path d="M364.2,962.06c-3.8-3.9-10.2-4.1-14.1-0.3l-14.4,13.8l-14.4-13.8c-4-3.8-10.3-3.7-14.1,0.3c-3.8,4-3.7,10.3,0.3,14.1
				l13.8,13.3l-13.8,13.3c-4,3.8-4.1,10.2-0.3,14.1c2,2,4.6,3.1,7.2,3.1c2.5,0,5-0.9,6.9-2.8l14.4-13.8l14.4,13.8
				c1.9,1.9,4.4,2.8,6.9,2.8c2.6,0,5.2-1,7.2-3.1c3.8-4,3.7-10.3-0.3-14.1l-13.8-13.3l13.8-13.3
				C367.9,972.36,368,965.96,364.2,962.06z"/>
			<path d="M121.4,912.46c2,2,4.6,3.1,7.2,3.1c2.5,0,5-0.9,6.9-2.8l14.4-13.8l14.4,13.8c1.9,1.9,4.4,2.8,6.9,2.8
				c2.6,0,5.2-1,7.2-3.1c3.8-4,3.7-10.3-0.3-14.1l-13.8-13.3l13.8-13.3c4-3.8,4.1-10.2,0.3-14.1c-3.8-4-10.2-4.1-14.1-0.3
				l-14.4,13.8l-14.4-13.8c-4-3.8-10.3-3.7-14.1,0.3c-3.8,4-3.7,10.3,0.3,14.1l13.8,13.3l-13.8,13.3
				C117.7,902.16,117.6,908.56,121.4,912.46z"/>
			<path d="M409.8,929.16h-340c-5.5,0-10,4.5-10,10s4.5,10,10,10h340c5.5,0,10-4.5,10-10S415.3,929.16,409.8,929.16z"/>
			<path d="M409.8,875.06H240.2c-5.5,0-10,4.5-10,10s4.5,10,10,10h169.6c5.5,0,10-4.5,10-10S415.3,875.06,409.8,875.06z"/>
			<path d="M239.4,979.46H69.8c-5.5,0-10,4.5-10,10s4.5,10,10,10h169.6c5.5,0,10-4.5,10-10S244.9,979.46,239.4,979.46z"/>
			<path d="M219.7,737.56c14.1,13.8,32.6,21.4,52.1,21.4s38-7.6,52.1-21.4c14-13.8,21.8-32.1,21.8-51.4c0-19.3-7.7-37.6-21.8-51.4
				c-14.1-13.8-32.5-21.4-52.1-21.4c-19.6,0-38.1,7.6-52.1,21.4c-14,13.8-21.8,32.1-21.8,51.4
				C197.9,705.46,205.6,723.76,219.7,737.56z M271.8,633.26c29.2,0,53.9,24.2,53.9,52.8s-24.7,52.8-53.9,52.8
				c-29.2,0-53.9-24.2-53.9-52.8S242.6,633.26,271.8,633.26z"/>
			<path d="M261.8,790.86v31c0,5.5,4.5,10,10,10s10-4.5,10-10v-31c0-5.5-4.5-10-10-10S261.8,785.36,261.8,790.86z"/>
			<path d="M271.8,591.36c5.5,0,10-4.5,10-10v-31c0-5.5-4.5-10-10-10s-10,4.5-10,10v31C261.8,586.86,266.3,591.36,271.8,591.36z"/>
			<path d="M368.3,686.06c0,5.5,4.5,10,10,10h31.5c5.5,0,10-4.5,10-10s-4.5-10-10-10h-31.5C372.8,676.06,368.3,680.56,368.3,686.06z
				"/>
			<path d="M133.7,696.06h31.5c5.6,0,10-4.5,10-10s-4.5-10-10-10h-31.5c-5.5,0-10,4.5-10,10S128.2,696.06,133.7,696.06z"/>
			<path d="M189.8,752.76l-20.5,20.1c-3.9,3.8-4,10.2-0.1,14.1c1.9,2,4.5,3,7.1,3c2.5,0,5.1-1,7-2.9l20.5-20.1
				c3.9-3.8,4-10.2,0.1-14.1C200.1,748.96,193.7,748.86,189.8,752.76z"/>
			<path d="M339.6,752.86c-3.9,3.9-3.8,10.2,0.1,14.1l20.5,20.1c1.9,1.9,4.5,2.9,7,2.9c2.6,0,5.2-1,7.1-3c3.9-3.9,3.8-10.2-0.1-14.1
				l-20.5-20.1C349.8,748.86,343.5,748.96,339.6,752.86z"/>
			<path d="M189.8,619.46c1.9,1.9,4.5,2.9,7,2.9c2.6,0,5.1-1,7.1-3c3.9-3.9,3.8-10.2-0.1-14.1l-20.5-20.1
				c-3.9-3.9-10.2-3.8-14.1,0.1c-3.9,3.9-3.8,10.2,0.1,14.1L189.8,619.46z"/>
			<path d="M346.7,622.36c2.6,0,5.1-1,7.1-2.9l20.4-20.1c3.9-3.8,4-10.2,0.1-14.1c-3.8-3.9-10.2-4-14.1-0.1l-20.5,20.1
				c-3.9,3.8-4,10.2-0.1,14.1C341.5,621.36,344.1,622.36,346.7,622.36z"/>
		</g>
	</g>
</g>
</svg>